Coordinates
version=1
nRows=29
nColumns=24
inDegrees=yes

Units are S.I. units (second, meters, Newtons, ...)
Angles are in degrees.

endheader
time	pelvis_tilt	pelvis_list	pelvis_rotation	pelvis_tx	pelvis_ty	pelvis_tz	hip_flexion_r	hip_adduction_r	hip_rotation_r	knee_angle_r	ankle_angle_r	subtalar_angle_r	mtp_angle_r	hip_flexion_l	hip_adduction_l	hip_rotation_l	knee_angle_l	ankle_angle_l	subtalar_angle_l	mtp_angle_l	lumbar_extension	lumbar_bending	lumbar_rotation
      1.75000000	     -9.02743427	      0.21591780	      3.67514437	     -0.17964833	      1.23568455	     -0.88093768	     34.14062162	      2.55391525	     -2.34279562	    -39.69946702	      6.71083624	     -7.14990822	      8.25226895	     13.39142720	      9.90899221	     10.60140565	    -21.22055233	      8.84230050	      1.51369691	      8.78667659	     -4.90917846	     -2.04914293	     -1.42245879
      1.75500000	     -9.07341473	      0.17563330	      3.67845942	     -0.17461307	      1.23535048	     -0.88069528	     34.19713896	      2.62354491	     -2.11649356	    -37.75348373	      6.83303450	     -7.39561585	      7.99808127	     13.09889646	      9.84313600	     10.62785204	    -21.34293341	      9.18703629	      1.62463622	      8.81418343	     -4.93408662	     -2.02170969	     -1.53199627
      1.76000000	     -9.12358262	      0.14251886	      3.67805401	     -0.16955664	      1.23497597	     -0.88040022	     34.20749111	      2.69022219	     -1.87752183	    -35.71970540	      6.91980314	     -7.69177822	      7.71953655	     12.82243218	      9.77587067	     10.60660658	    -21.48940490	      9.55829255	      1.79579601	      8.83220494	     -4.94959005	     -2.01243648	     -1.58769531
      1.76500000	     -9.17904779	      0.09960082	      3.71940542	     -0.16444137	      1.23459412	     -0.88018995	     34.15683501	      2.71403956	     -1.73336675	    -33.58346484	      6.96201912	     -7.88686208	      7.52707364	     12.53239603	      9.71374216	     10.65582131	    -21.60690571	      9.88337227	      1.89704356	      8.86495293	     -4.95121840	     -1.98251533	     -1.71079759
      1.77000000	     -9.23702479	      0.06818724	      3.75746275	     -0.15928515	      1.23418322	     -0.87991897	     34.04837173	      2.73539354	     -1.57152644	    -31.35429145	      6.94812614	     -8.13681465	      7.34007041	     12.24776481	      9.65297251	     10.66330304	    -21.73267638	     10.21935578	      2.05691748	      8.90661965	     -4.94427720	     -1.98081845	     -1.78482727
      1.77500000	     -9.29980920	      0.04911048	      3.79508575	     -0.15411120	      1.23371551	     -0.87960519	     33.89254925	      2.74576877	     -1.40113325	    -29.04692874	      6.87514481	     -8.39543251	      7.19242806	     11.98261113	      9.59890664	     10.62797207	    -21.88794895	     10.58070074	      2.25503527	      8.93429029	     -4.92962108	     -2.00028634	     -1.82038391
      1.78000000	     -9.38809193	      0.03997756	      3.89434335	     -0.14889945	      1.23319229	     -0.87940828	     33.72451133	      2.67775422	     -1.37225241	    -26.71623806	      6.77604959	     -8.44618964	      7.10387556	     11.74102534	      9.58758435	     10.71549175	    -22.04451351	     10.87462357	      2.36253071	      8.98114583	     -4.88193778	     -2.02113110	     -1.91882272
      1.78500000	     -9.46884075	      0.05549410	      3.94139488	     -0.14357894	      1.23262216	     -0.87905460	     33.50901337	      2.63770982	     -1.26595572	    -24.36254163	      6.62534958	     -8.63410124	      7.05801997	     11.46902819	      9.55912790	     10.64239883	    -22.16923394	     11.22489512	      2.60664699	      9.02358377	     -4.82525099	     -2.08249307	     -1.94422751
      1.79000000	     -9.58931453	      0.07901390	      4.06410362	     -0.13828754	      1.23197354	     -0.87885325	     33.33775245	      2.51111242	     -1.35187021	    -22.08490703	      6.51091651	     -8.52617859	      7.01386858	     11.26349532	      9.58703399	     10.73497047	    -22.33907045	     11.49321190	      2.71054290	      9.08355469	     -4.73389566	     -2.14291372	     -2.02110852
      1.79500000	     -9.69985378	      0.11771436	      4.16310005	     -0.13291922	      1.23131566	     -0.87857254	     33.13667692	      2.39468525	     -1.44013172	    -19.85155947	      6.39419659	     -8.40148117	      6.99592170	     11.02490568	      9.60713485	     10.75666967	    -22.47526815	     11.77068894	      2.87817407	      9.15912977	     -4.63887858	     -2.22417583	     -2.06828215
      1.80000000	     -9.82875958	      0.15812003	      4.26371586	     -0.12751758	      1.23061657	     -0.87828423	     32.95065635	      2.27683866	     -1.57914628	    -17.69654736	      6.27711725	     -8.17672618	      7.00071483	     10.82069573	      9.62938574	     10.76381880	    -22.64141051	     12.04909162	      3.05532983	      9.24297407	     -4.51638516	     -2.30588865	     -2.09775884
      1.80500000	     -9.96227473	      0.20146002	      4.37166007	     -0.12210423	      1.22989268	     -0.87799413	     32.76791606	      2.15571511	     -1.77844384	    -15.63340719	      6.16137016	     -7.85053175	      7.02449934	     10.63485551	      9.65670137	     10.77514657	    -22.83446028	     12.31466445	      3.23756916	      9.33382724	     -4.39112637	     -2.38958452	     -2.11202715
      1.81000000	    -10.10135864	      0.24366211	      4.48367949	     -0.11665096	      1.22915140	     -0.87769988	     32.58796060	      2.04039434	     -2.03267113	    -13.66918534	      6.04005063	     -7.43308332	      7.07195153	     10.46433909	      9.68116459	     10.77792832	    -23.04830207	     12.57442476	      3.43746447	      9.44273804	     -4.25371746	     -2.46800336	     -2.12107913
      1.81500000	    -10.24427161	      0.28690482	      4.59678024	     -0.11115579	      1.22840320	     -0.87738196	     32.41532893	      1.93382976	     -2.33511671	    -11.82456916	      5.91954362	     -6.92690871	      7.15478259	     10.30481492	      9.70182225	     10.77063713	    -23.27682468	     12.82697425	      3.66602699	      9.56830568	     -4.10488765	     -2.54730309	     -2.12222475
      1.82000000	    -10.39415791	      0.32902903	      4.71222612	     -0.10563856	      1.22763567	     -0.87707323	     32.26120587	      1.83566600	     -2.68032891	    -10.11941162	      5.77590770	     -6.35428531	      7.26098396	     10.17580498	      9.72417449	     10.75702147	    -23.55028695	     13.06435846	      3.89892582	      9.71143157	     -3.94353660	     -2.61622701	     -2.10784779
      1.82500000	    -10.53932400	      0.38131092	      4.81189473	     -0.10007976	      1.22686071	     -0.87671172	     32.12187824	      1.74864151	     -3.03834643	     -8.57933185	      5.66709159	     -5.65110294	      7.44056128	     10.04820376	      9.74337553	     10.69844688	    -23.83641301	     13.31362373	      4.20005730	      9.89458332	     -3.78558383	     -2.69354655	     -2.09742730
      1.83000000	    -10.70792226	      0.41394562	      4.93357244	     -0.09454315	      1.22606536	     -0.87638130	     32.02431687	      1.68065584	     -3.43670896	     -7.19840372	      5.43375243	     -5.06962553	      7.55330425	      9.99500562	      9.75953760	     10.68368877	    -24.20652015	     13.49488155	      4.40262033	     10.06903742	     -3.59957283	     -2.74790245	     -2.04606763
      1.83500000	    -10.85819988	      0.44875657	      5.04352823	     -0.08895830	      1.22529101	     -0.87604460	     31.92368498	      1.62611479	     -3.84823957	     -5.99455723	      5.23134548	     -4.39259577	      7.71752575	      9.93857157	      9.76814547	     10.62650014	    -24.60924167	     13.69107926	      4.70544013	     10.31683961	     -3.42553315	     -2.78463522	     -1.99742172
      1.84000000	    -11.01772854	      0.49018501	      5.13162551	     -0.08334554	      1.22450596	     -0.87565899	     31.86324863	      1.58670326	     -4.21966947	     -4.98887004	      5.03421449	     -3.68381068	      7.91861481	      9.91476773	      9.77285292	     10.51798951	    -25.04758405	     13.87163556	      5.03932248	     10.61673552	     -3.24158768	     -2.82201544	     -1.95415563
      1.84500000	    -11.17589100	      0.51379442	      5.23350834	     -0.07777891	      1.22373736	     -0.87531549	     31.82873953	      1.56377885	     -4.60364692	     -4.17407898	      4.70686625	     -3.13138148	      8.06367785	      9.95150070	      9.77468998	     10.43795832	    -25.58898581	     13.99743914	      5.31119134	     10.91411136	     -3.06414340	     -2.83302858	     -1.86348956
      1.85000000	    -11.32759216	      0.53242865	      5.31689885	     -0.07217223	      1.22299052	     -0.87495187	     31.80623211	      1.56175546	     -4.94477264	     -3.54063334	      4.37501190	     -2.58647930	      8.21869980	     10.01172539	      9.75898239	     10.30434603	    -26.17907290	     14.10901868	      5.65485471	     11.30096711	     -2.88949501	     -2.82137331	     -1.77588672
      1.85500000	    -11.46791064	      0.54096440	      5.39722624	     -0.06656431	      1.22227515	     -0.87460652	     31.79559263	      1.57415385	     -5.25293560	     -3.09354013	      3.96881324	     -2.14434757	      8.34863578	     10.10779202	      9.73433088	     10.15536474	    -26.84727520	     14.18136105	      5.99321378	     11.73763506	     -2.72589214	     -2.78590207	     -1.67949871
      1.86000000	    -11.60567924	      0.53831849	      5.47168112	     -0.06092907	      1.22159756	     -0.87427221	     31.79849073	      1.60197742	     -5.51308191	     -2.81445633	      3.50949859	     -1.80247192	      8.45556522	     10.25195011	      9.69485397	      9.97443288	    -27.59513270	     14.20365401	      6.36449405	     12.26510772	     -2.55801010	     -2.72348367	     -1.57144149
      1.86500000	    -11.72520392	      0.51868617	      5.53877681	     -0.05529993	      1.22096512	     -0.87395771	     31.80356372	      1.65087004	     -5.71637051	     -2.69938971	      2.96779790	     -1.59343012	      8.52587511	     10.43646683	      9.63585288	      9.76970467	    -28.43553963	     14.16444672	      6.74545927	     12.87791194	     -2.41215528	     -2.62552519	     -1.45442472
      1.87000000	    -11.82575601	      0.49508778	      5.58787521	     -0.04964676	      1.22038680	     -0.87362292	     31.81638522	      1.71635612	     -5.84382640	     -2.75408793	      2.36046299	     -1.57427624	      8.54541385	     10.66050168	      9.55430323	      9.48080985	    -29.36169012	     14.03537191	      7.16604044	     13.69129301	     -2.28570196	     -2.51136324	     -1.32235928
      1.87500000	    -11.91945362	      0.45060371	      5.64469012	     -0.04399226	      1.21986935	     -0.87333120	     31.83066025	      1.79551819	     -5.90893543	     -2.92854703	      1.64342972	     -1.71955022	      8.50955810	     10.93957105	      9.45997594	      9.21449013	    -30.38214748	     13.84658931	      7.53688260	     14.57084754	     -2.16385129	     -2.36240416	     -1.19471115
      1.88000000	    -11.98533853	      0.39505661	      5.67945330	     -0.03832090	      1.21941532	     -0.87304799	     31.81345481	      1.89800985	     -5.84472729	     -3.18458254	      0.83632321	     -2.03972096	      8.40287144	     11.24950810	      9.34323802	      8.90117947	    -31.48942526	     13.55558436	      7.88855743	     15.61618369	     -2.06950984	     -2.18080233	     -1.01569134
      1.88500000	    -12.03243708	      0.31388307	      5.72313304	     -0.03265735	      1.21902109	     -0.87279479	     31.80586976	      2.01974279	     -5.74140799	     -3.57397184	     -0.01213839	     -2.51113229	      8.24692925	     11.61726136	      9.19768189	      8.57891382	    -32.71082149	     13.18108805	      8.25022882	     16.73781821	     -1.99882588	     -1.95722902	     -0.87720635
      1.89000000	    -12.06011146	      0.21183702	      5.76650352	     -0.02699164	      1.21870136	     -0.87255463	     31.80092517	      2.16204918	     -5.56918660	     -4.07104636	     -0.90785242	     -3.13025513	      8.04768288	     12.03369054	      9.02273202	      8.23920549	    -34.02672311	     12.71734067	      8.59715243	     17.97267255	     -1.95524427	     -1.69859473	     -0.78033283
